
        <svg xmlns="http://www.w3.org/2000/svg" xmlns:xlink="http://www.w3.org/1999/xlink" version="1.1" width="3225.8823529411766" height="3225.8823529411766" viewBox="0 0 3225.8823529411766 3225.8823529411766">
			
			<g transform="scale(11.294117647058824) translate(10, 10)">
				<defs id="SvgjsDefs1194"/><g id="SvgjsG1195" featureKey="rootContainer" transform="matrix(5.3125,0,0,5.3125,0,0)" fill="#000"><path xmlns="http://www.w3.org/2000/svg" d="M5 0h45v45a5 5 0 0 1-5 5H0V5a5 5 0 0 1 5-5z"/></g><g id="SvgjsG1196" featureKey="symbolFeature-0" transform="matrix(1.020872461507379,0,0,1.020872461507379,82.01529018832461,55.9334298034132)" fill="#ffffff"><path xmlns="http://www.w3.org/2000/svg" d="M19.933,41.995c-5.962-3.529-7.926-11.217-4.402-17.167c3.529-5.958,11.212-7.929,17.174-4.398  c5.95,3.526,7.921,11.213,4.392,17.171C33.574,43.551,25.883,45.522,19.933,41.995z"/><path xmlns="http://www.w3.org/2000/svg" d="M69.948,23.86v3.532H42.413v7.029h4.478v21.658c0,0-24.741-9.691-24.799-9.712c-3.131-1.192-7.548-1.248-11.004,1.135  C0.34,55.277-0.662,75.417,2.621,89.139h36.731L32.87,65.631l-11.445-4.447c-0.548-0.212-0.819-0.829-0.606-1.377  c0.211-0.55,0.832-0.82,1.377-0.606l28.468,11.088c0.697,0.273,1.429,0.409,2.158,0.409c1.176,0,2.346-0.353,3.345-1.033  c1.618-1.106,2.587-2.939,2.587-4.898V34.421h11.195v3.531h28.971V23.86H69.948z"/></g><g id="SvgjsG1197" featureKey="nameFeature-0" transform="matrix(0.8063164854735771,0,0,0.8063164854735771,47.480386875761,158.6536567119027)" fill="#ffffff"><path d="M16.758 10.390999999999998 l12.559 0 l0 5.3711 l-1.0156 0 l-8.9648 9.5117 l8.9453 9.375 l0.95703 0 l0 5.3516 l-12.559 0 l0 -5.3516 l2.9883 0 l-4.5703 -4.8438 l-4.5508 4.8438 l2.6563 0 l0 5.3516 l-12.559 0 l0 -5.3516 l1.3477 0 l8.8281 -9.375 l-9.043 -9.5117 l-1.0547 0 l0 -5.3711 l12.559 0 l0 5.3711 l-2.9883 0 l4.7656 5.0195 l4.7266 -5.0195 l-3.0273 0 l0 -5.3711 z M34.15280078125 10.390999999999998 l23.555 0 l0 10.098 l-6.3672 0 l0 -4.1992 l-7.5977 0 l0 5.8398 l5.8789 0 l0 5.6641 l-5.8789 0 l0 6.8555 l7.5977 0 l0 -5.2539 l6.3672 0 l0 10.605 l-23.555 0 l0 -5.3516 l3.1055 0 l0 -18.359 l-3.1055 0 l0 -5.8984 z M62.2509453125 10.390999999999998 l15.664 0 q2.28515625 0 4.08203125 0.68359375 t3.0273 1.8262 t1.8848 2.6563 t0.6543 3.1543 q0 1.50390625 -0.322265625 2.63671875 t-0.9375 2.0117 t-1.5137 1.5527 t-2.0508 1.2207 q0.99609375 0.5078125 1.7578125 1.552734375 t1.1523 2.7051 l0.99609 3.8477 l2.4414 0 l0.039063 5.7617 l-8.5938 0 l-1.1719 -7.0313 q-0.17578125 -1.25 -0.537109375 -2.158203125 t-0.9668 -1.4844 t-1.4746 -0.84961 t-2.0605 -0.27344 l-2.5195 0 l0 6.4453 l2.7148 0 l0 5.3516 l-12.266 0 l0 -5.3516 l3.0664 0 l0 -18.887 l-3.0664 0 l0 -5.3711 z M71.8019453125 15.762 l0 7.168 l3.8867 0 q1.11328125 0 2.001953125 -0.205078125 t1.5234 -0.64453 t0.97656 -1.1035 t0.3418 -1.582 q0 -1.71875 -1.23046875 -2.67578125 t-3.6133 -0.95703 l-3.8867 0 z M92.06786734375 10.390999999999998 l11.875 0 l0 5.3711 l-2.7148 0 l0 12.285 q0 1.6796875 0.380859375 2.8515625 t1.0645 1.9141 t1.6211 1.084 t2.0508 0.3418 q1.15234375 0 2.099609375 -0.29296875 t1.6211 -1.0059 t1.0352 -1.9043 t0.36133 -2.9883 l0 -12.285 l-3.1445 0 l0 -5.3711 l11.875 0 l0 5.3711 l-2.3633 0 l0 11.523 q0 3.125 -0.8984375 5.556640625 t-2.4707 4.1113 t-3.6914 2.5586 t-4.541 0.87891 q-2.40234375 0 -4.4921875 -0.869140625 t-3.6426 -2.5195 t-2.4512 -4.0137 t-0.89844 -5.3516 l0 -11.875 l-2.6758 0 l0 -5.3711 z M124.912078125 34.6484 l3.0273 0 l0 -18.887 l-3.0273 0 l0 -5.4102 l14.434 0.039063 q2.01171875 0 3.681640625 0.712890625 t2.8809 1.9336 t1.8848 2.8516 t0.67383 3.4668 q0 2.1484375 -0.751953125 3.5546875 t-2.1387 2.2656 q1.46484375 0.9375 2.314453125 2.314453125 t0.84961 3.3496 q0 2.01171875 -0.693359375 3.69140625 t-1.8945 2.9004 t-2.8418 1.8945 t-3.5352 0.67383 l-14.863 0 l0 -5.3516 z M134.424078125 27.753999999999998 l0 6.8945 l4.9219 0 q0.56640625 0 1.064453125 -0.29296875 t0.85938 -0.77148 t0.57617 -1.1133 t0.21484 -1.3184 q0 -0.72265625 -0.21484375 -1.337890625 t-0.58594 -1.0742 t-0.86914 -0.72266 t-1.0449 -0.26367 l-4.9219 0 z M134.424078125 15.762 l0 6.6406 l4.6484 0 q0.546875 0 1.03515625 -0.2734375 t0.84961 -0.73242 t0.57617 -1.0352 t0.21484 -1.2012 q0 -0.60546875 -0.21484375 -1.2109375 t-0.57617 -1.0938 t-0.84961 -0.79102 t-1.0352 -0.30273 l-4.6484 0 z M153.12741015625 10.390999999999998 l12.676 0 l0 5.3516 l-3.125 0 l0 18.906 l3.125 0 l0 5.3516 l-12.676 0 l0 -5.3516 l3.0664 0 l0 -18.906 l-3.0664 0 l0 -5.3516 z M170.0927421875 34.6484 l2.7539 0 l0 -18.887 l-2.7539 0 l0 -5.3711 l12.188 0 l8.7305 21.367 l8.1055 -21.367 l12.363 0 l0 5.3711 l-2.7539 0 l0 18.887 l2.7148 0 l0 5.3516 l-11.074 0 l0 -5.3516 l2.0313 0 l0 -17.031 l-8.8672 22.031 l-5.4883 0 l-9.0234 -21.445 l0 16.445 l2.207 0 l0 5.3516 l-11.133 0 l0 -5.3516 z"/></g>
			</g>
		</svg>
	